<svg preserveAspectRatio="none" data-bbox="20.002 20.002 159.995 159.995" viewBox="20.002 20.002 159.995 159.995" height="200" width="200" xmlns="http://www.w3.org/2000/svg" data-type="shape" role="presentation" aria-hidden="true">
    <g>
        <path d="M140.119 20.002H59.881c-22.025 0-39.879 17.855-39.879 39.879v80.237c0 22.025 17.855 39.879 39.879 39.879h80.237c22.025 0 39.879-17.855 39.879-39.879V59.881c.001-22.024-17.854-39.879-39.878-39.879zm-17.451 79.135a4.997 4.997 0 0 1-7.07-.195L105.003 87.75v37.05c0 2.764-2.236 5-5 5s-5-2.236-5-5V87.746L84.397 98.942a4.972 4.972 0 0 1-3.628 1.562 4.97 4.97 0 0 1-3.437-1.372 4.993 4.993 0 0 1-.19-7.065L96.375 71.76a4.997 4.997 0 0 1 7.261 0l19.228 20.307a5.004 5.004 0 0 1-.196 7.07z"></path>
    </g>
</svg>